<?xml version="1.0" standalone="no"?>
<!DOCTYPE svg PUBLIC "-//W3C//DTD SVG 20010904//EN"
 "http://www.w3.org/TR/2001/REC-SVG-20010904/DTD/svg10.dtd">
<svg version="1.0" xmlns="http://www.w3.org/2000/svg"
 width="318.000000pt" height="539.000000pt" viewBox="0 0 318.000000 539.000000"
 preserveAspectRatio="xMidYMid meet">

<g transform="translate(0.000000,539.000000) scale(0.100000,-0.100000)"
fill="#000000" stroke="none">
<path d="M1320 5217 c-3 -3 -32 -7 -65 -11 -78 -8 -117 -19 -169 -50 -89 -52
-119 -142 -90 -267 25 -109 49 -122 124 -66 41 30 50 32 124 32 l79 0 49 -55
c27 -30 62 -81 78 -114 27 -53 30 -69 30 -151 0 -138 -5 -154 -55 -176 -59
-26 -93 -55 -114 -98 -16 -31 -27 -39 -70 -50 -126 -32 -303 -120 -418 -208
-438 -335 -593 -884 -394 -1400 37 -95 122 -234 193 -316 l50 -58 -153 -157
c-85 -86 -183 -197 -218 -247 -77 -108 -151 -261 -181 -370 -46 -172 -62 -474
-39 -784 24 -345 25 -352 45 -371 11 -11 65 -30 129 -45 178 -42 517 -114 591
-125 38 -5 92 -14 121 -19 29 -6 126 -18 215 -28 288 -30 658 -17 928 33 274
51 644 136 814 188 30 9 67 13 97 9 57 -7 55 -12 63 157 3 63 10 178 15 255
33 472 -7 749 -141 992 -68 123 -155 232 -310 385 -70 70 -128 130 -128 133 0
3 25 37 56 75 287 356 341 852 137 1263 -128 257 -318 440 -593 570 -74 35
-174 69 -237 82 -21 4 -34 14 -39 28 -20 64 -92 116 -162 117 -18 0 -46 7 -62
15 -25 13 -30 22 -31 53 -3 96 10 143 63 223 72 109 84 120 127 126 73 10 111
-4 168 -63 55 -57 60 -59 82 -45 28 18 40 166 20 246 -14 56 -76 120 -158 164
-95 50 -115 38 -122 -72 -3 -48 -16 -83 -40 -112 -9 -11 -53 -70 -97 -132
l-80 -112 -30 62 c-17 34 -60 94 -96 134 -84 94 -98 145 -70 253 13 52 15 76
8 88 -11 17 -35 27 -44 19z m-46 -183 l0 -97 -50 -2 c-27 -1 -70 -11 -96 -22
-58 -26 -68 -18 -68 58 0 47 5 63 26 88 14 18 36 37 48 43 22 12 127 37 136
33 3 -2 5 -47 4 -101z m685 -90 c24 -30 38 -111 23 -126 -7 -7 -18 -4 -37 10
-15 12 -47 24 -73 27 -74 10 -74 9 -52 57 11 24 20 57 20 74 0 17 3 33 6 37 9
8 88 -47 113 -79z m-239 -654 c50 -26 62 -49 69 -135 6 -64 8 -70 30 -73 26
-4 41 12 41 45 0 12 4 24 9 27 26 16 287 -94 391 -164 117 -79 264 -228 327
-329 74 -120 124 -238 156 -366 32 -130 32 -361 -1 -492 -27 -110 -75 -229
-133 -327 -40 -67 -154 -205 -209 -252 -14 -12 -38 -34 -55 -49 -82 -73 -253
-166 -390 -210 -236 -76 -516 -74 -750 6 -93 32 -233 102 -305 152 -89 64
-242 218 -298 301 -227 342 -256 765 -76 1121 110 217 298 406 514 515 85 42
212 90 241 90 15 0 19 -7 19 -35 0 -42 26 -62 51 -39 13 11 16 26 12 55 -9 64
34 158 73 159 6 0 16 -11 22 -25 19 -41 64 -29 74 20 3 16 7 14 25 -18 32 -53
73 -45 73 15 0 23 4 28 25 28 14 0 43 -9 65 -20z m-960 -2155 c24 -28 191
-135 269 -171 194 -91 304 -116 536 -122 167 -3 188 -2 295 23 183 42 329 105
475 206 49 34 72 45 77 36 13 -20 9 -246 -6 -343 -44 -286 -217 -431 -691
-579 -409 -127 -573 -188 -765 -282 -107 -53 -212 -107 -235 -121 -22 -14 -62
-39 -90 -57 -27 -18 -79 -51 -115 -73 -65 -41 -80 -52 -239 -163 -46 -32 -87
-59 -91 -59 -13 0 -35 353 -35 560 2 472 85 678 410 1008 152 154 177 171 205
137z m1856 -107 c176 -180 236 -260 311 -414 43 -89 65 -158 90 -289 25 -127
25 -537 0 -760 -10 -88 -20 -161 -21 -163 -7 -6 -301 101 -446 163 -237 100
-395 182 -550 283 -154 102 -316 231 -303 242 4 4 63 26 130 49 67 22 130 45
140 50 10 5 43 19 73 31 160 64 311 185 373 300 65 121 80 198 81 422 1 109 3
198 6 198 3 0 55 -51 116 -112z m-911 -1050 c61 -50 133 -106 160 -124 28 -18
63 -43 79 -56 l28 -24 -123 -89 c-177 -126 -197 -140 -276 -180 l-71 -36 -89
36 c-78 32 -154 65 -288 124 -35 16 -120 48 -263 99 -23 8 -41 20 -39 26 3 9
190 108 293 154 72 33 438 160 464 161 8 1 65 -40 125 -91z m363 -254 c88 -61
519 -254 740 -331 85 -29 68 -42 -118 -89 -225 -56 -338 -82 -385 -90 -22 -3
-96 -17 -165 -30 -269 -53 -639 -71 -900 -45 -199 19 -353 42 -380 55 -39 18
-37 55 3 94 37 36 54 40 357 72 256 27 398 84 620 246 83 61 192 134 200 134
3 0 16 -7 28 -16z m-1022 -123 c219 -91 319 -138 319 -152 0 -18 -87 -34 -260
-49 -138 -12 -187 -21 -247 -47 -38 -16 -78 -68 -78 -102 0 -44 -36 -46 -205
-7 -99 23 -231 53 -292 66 -28 7 -59 17 -68 24 -16 11 -14 15 21 43 101 78
337 237 452 304 l44 26 97 -28 c54 -16 151 -51 217 -78z"/>
<path d="M1800 3284 c0 -72 65 -141 178 -188 112 -47 325 -46 430 2 106 48
182 133 168 188 -10 38 -45 28 -70 -20 -45 -86 -171 -140 -321 -140 -166 1
-296 71 -329 177 -3 10 -15 17 -31 17 -22 0 -25 -4 -25 -36z"/>
<path d="M580 3281 c0 -137 202 -251 425 -238 90 5 122 13 204 49 91 40 151
106 151 167 0 26 -4 31 -24 31 -18 0 -30 -11 -48 -42 -29 -53 -84 -91 -173
-120 -179 -57 -401 6 -460 129 -16 34 -25 42 -47 43 -21 0 -28 -5 -28 -19z"/>
<path d="M1490 2807 c-96 -30 -211 -226 -218 -372 -8 -156 97 -283 263 -320
67 -15 79 -15 134 -1 148 38 231 121 262 264 13 64 -1 123 -56 237 -52 106
-108 167 -173 189 -52 18 -160 19 -212 3z"/>
<path d="M1004 1825 c-100 -73 -218 -124 -304 -132 -31 -3 -93 2 -143 11 -94
18 -127 12 -127 -23 0 -45 88 -70 247 -72 l62 0 -69 -87 c-38 -48 -90 -116
-117 -152 -57 -77 -124 -121 -221 -145 -88 -22 -116 -36 -120 -62 -5 -35 29
-46 96 -32 31 6 64 15 72 19 8 4 27 10 42 14 l27 6 -48 -102 c-68 -145 -181
-430 -181 -455 0 -31 26 -48 53 -36 17 8 41 58 102 209 111 277 293 638 295
584 4 -107 12 -164 39 -256 35 -119 54 -144 92 -123 25 13 23 36 -14 163 -32
104 -35 201 -11 309 15 66 21 77 73 127 31 30 93 83 139 118 l82 62 1 -57 c0
-32 3 -71 5 -88 8 -44 58 -147 88 -180 14 -15 26 -31 26 -35 0 -13 36 -18 54
-8 27 15 19 47 -29 118 -53 77 -67 140 -58 264 9 129 -21 137 -153 41z"/>
<path d="M2308 1369 c-21 -12 -24 -45 -5 -63 6 -6 43 -34 82 -61 179 -127 271
-247 411 -533 46 -95 92 -176 100 -179 26 -10 49 12 48 44 -2 37 -153 343
-219 444 -61 93 -207 238 -309 307 -85 57 -83 56 -108 41z"/>
</g>
</svg>
