<?xml version="1.0" standalone="no"?>
<!DOCTYPE svg PUBLIC "-//W3C//DTD SVG 20010904//EN"
 "http://www.w3.org/TR/2001/REC-SVG-20010904/DTD/svg10.dtd">
<svg version="1.0" xmlns="http://www.w3.org/2000/svg"
 width="1130.000000pt" height="224.000000pt" viewBox="0 0 1130.000000 224.000000"
 preserveAspectRatio="xMidYMid meet">

<g transform="translate(0.000000,224.000000) scale(0.100000,-0.100000)"
fill="#000000" stroke="none">
<path d="M2125 1918 c-3 -7 -4 -366 -3 -798 3 -690 5 -785 18 -785 13 0 15 95
15 794 0 626 -3 795 -12 798 -7 3 -15 -1 -18 -9z"/>
<path d="M863 1903 c-12 -2 -32 -15 -46 -29 -13 -13 -44 -31 -68 -39 -63 -22
-130 -69 -184 -126 -137 -147 -145 -380 -18 -547 l25 -33 -69 -72 c-45 -47
-82 -97 -104 -142 -34 -69 -34 -70 -37 -235 -2 -91 1 -183 5 -205 9 -40 9 -40
78 -57 319 -79 505 -82 803 -12 80 19 156 34 168 34 27 0 34 43 34 224 0 205
-23 270 -144 402 l-64 70 19 25 c112 140 121 356 20 502 -56 81 -151 152 -239
178 -24 7 -47 20 -52 30 -10 18 -62 40 -89 38 -9 -1 -26 -4 -38 -6z m101 -45
c9 -12 16 -30 16 -40 0 -10 5 -18 10 -18 6 0 10 5 10 10 0 37 141 -30 212
-101 28 -28 63 -78 81 -117 29 -62 32 -75 32 -167 0 -92 -3 -105 -32 -166 -41
-83 -120 -159 -210 -202 -64 -30 -74 -32 -183 -32 -104 0 -120 3 -173 27 -81
38 -170 126 -210 207 -30 61 -32 74 -32 166 0 88 3 107 28 159 50 108 128 182
233 222 43 16 45 16 59 -2 14 -18 14 -18 15 6 0 48 26 70 80 70 39 0 52 -4 64
-22z m-312 -791 c79 -50 132 -68 223 -74 96 -7 166 10 264 63 l63 35 -3 -84
c-7 -144 -51 -184 -297 -266 -182 -61 -285 -109 -400 -185 -57 -37 -105 -66
-107 -64 -2 2 -7 55 -11 119 -8 135 5 228 42 300 24 47 148 189 165 189 5 0
32 -15 61 -33z m716 -120 c49 -81 65 -175 58 -327 -4 -68 -11 -129 -16 -134
-30 -30 -460 188 -460 234 0 5 19 14 42 21 108 29 208 106 227 176 6 21 11 72
11 113 l0 74 53 -52 c29 -29 67 -76 85 -105z m-393 -284 c35 -27 64 -50 64
-53 1 -4 -36 -30 -80 -60 l-81 -53 -77 32 c-42 18 -97 40 -123 49 -27 9 -48
19 -48 22 0 15 222 108 263 109 10 1 46 -20 82 -46z m179 -112 c44 -21 109
-49 144 -61 36 -13 59 -27 54 -32 -5 -5 -80 -25 -168 -44 -157 -36 -161 -36
-334 -31 -171 5 -220 11 -220 27 0 24 37 38 126 49 107 13 167 36 249 95 27
20 54 36 58 36 5 0 46 -17 91 -39z m-421 -17 c48 -20 84 -40 82 -44 -3 -4 -37
-11 -76 -14 -82 -8 -116 -21 -124 -48 -8 -22 -27 -23 -113 -2 -100 24 -96 22
-82 39 7 9 47 38 89 66 89 60 94 60 224 3z"/>
<path d="M540 1508 c0 -18 18 -41 50 -62 36 -24 145 -22 188 4 33 20 50 45 38
57 -3 4 -19 -6 -35 -21 -20 -20 -43 -30 -75 -33 -60 -7 -89 1 -131 38 -22 20
-35 26 -35 17z"/>
<path d="M980 1506 c0 -22 57 -64 95 -72 77 -14 185 28 185 72 0 20 -5 18 -38
-16 -28 -27 -37 -30 -96 -30 -58 0 -69 3 -99 30 -39 34 -47 36 -47 16z"/>
<path d="M842 1317 c-25 -26 -52 -88 -52 -117 0 -86 108 -138 187 -90 47 28
62 86 38 140 -30 67 -58 90 -108 90 -32 0 -49 -6 -65 -23z"/>
<path d="M670 974 c-47 -29 -63 -34 -117 -34 -92 0 -81 -24 14 -32 l32 -3 -49
-57 c-34 -38 -65 -62 -95 -74 -56 -21 -58 -37 -5 -32 25 2 39 0 36 -7 -68
-154 -82 -195 -63 -195 7 0 27 34 46 78 18 42 47 106 66 142 33 64 33 64 40
35 28 -133 46 -140 38 -15 l-6 90 54 50 54 50 6 -38 c6 -43 35 -102 49 -102
15 0 12 33 -4 56 -8 11 -16 42 -18 69 -2 27 -7 49 -13 51 -5 1 -35 -13 -65
-32z"/>
<path d="M1160 813 c0 -3 26 -30 58 -58 38 -35 73 -81 105 -138 48 -88 67
-111 67 -82 0 40 -80 172 -138 228 -53 50 -92 71 -92 50z"/>
<path d="M2840 1146 c0 -169 1 -176 20 -176 18 0 20 7 20 70 l0 70 63 1 c82 1
106 9 131 42 31 41 28 100 -7 135 -26 25 -34 27 -127 30 l-100 4 0 -176z m192
117 c10 -9 18 -30 18 -49 0 -47 -29 -64 -107 -64 l-63 0 0 65 0 65 67 0 c48 0
72 -5 85 -17z"/>
<path d="M3400 1146 c0 -169 1 -176 20 -176 18 0 20 7 20 80 l0 80 49 0 c55 0
67 -11 126 -112 20 -36 33 -48 51 -48 13 0 24 3 24 6 0 13 -62 109 -88 137
-22 23 -23 27 -8 27 10 0 31 13 47 29 36 37 38 79 5 118 -23 27 -28 28 -135
31 l-111 4 0 -176z m215 110 c11 -17 13 -30 6 -48 -12 -33 -28 -38 -112 -38
l-69 0 0 55 0 55 80 0 c73 0 81 -2 95 -24z"/>
<path d="M4076 1310 c-87 -27 -131 -149 -87 -246 38 -84 137 -116 220 -72 56
29 85 82 85 153 0 123 -101 200 -218 165z m122 -46 c33 -23 52 -67 52 -119 0
-85 -43 -135 -116 -135 -54 0 -99 36 -114 90 -17 62 7 142 49 165 35 19 101
19 129 -1z"/>
<path d="M4570 1314 c0 -3 27 -47 60 -98 l60 -93 0 -76 c0 -75 1 -77 25 -77
25 0 25 1 25 78 0 78 1 80 48 148 91 129 88 124 59 124 -20 0 -35 -15 -77 -81
l-52 -81 -52 81 c-39 62 -56 81 -73 81 -13 0 -23 -3 -23 -6z"/>
<path d="M5160 1145 l0 -175 125 0 c118 0 125 1 125 20 0 19 -7 20 -105 20
l-105 0 0 60 0 60 95 0 c88 0 95 1 95 20 0 19 -7 20 -95 20 l-95 0 0 55 0 55
100 0 c93 0 100 1 100 20 0 19 -7 20 -120 20 l-120 0 0 -175z"/>
<path d="M5793 1301 c-71 -33 -101 -110 -81 -206 19 -89 93 -138 185 -120 39
7 103 62 103 88 0 19 -33 32 -39 15 -2 -7 -17 -25 -32 -40 -39 -39 -97 -39
-141 1 -32 28 -33 32 -33 106 0 74 1 78 33 106 25 23 42 29 76 29 38 0 49 -5
73 -34 19 -23 33 -32 45 -27 17 6 16 8 -2 39 -36 59 -112 77 -187 43z"/>
<path d="M6280 1300 c0 -18 7 -20 55 -20 l55 0 0 -155 c0 -148 1 -155 20 -155
19 0 20 7 20 155 l0 155 60 0 c53 0 60 2 60 20 0 19 -7 20 -135 20 -128 0
-135 -1 -135 -20z"/>
<path d="M6904 1300 c-81 -41 -111 -164 -62 -251 42 -75 159 -101 227 -51 53
39 66 69 66 147 0 79 -13 108 -67 148 -39 29 -114 33 -164 7z m135 -35 c30
-15 61 -76 61 -120 0 -44 -31 -105 -61 -120 -37 -20 -99 -19 -127 1 -68 47
-69 190 -1 238 29 20 91 21 128 1z"/>
<path d="M7810 1145 c0 -168 1 -175 20 -175 18 0 20 7 20 58 0 51 3 62 29 86
16 16 33 26 38 23 4 -3 33 -42 63 -86 47 -68 59 -81 83 -81 33 0 36 -6 -54
116 l-67 91 71 72 c69 68 71 71 43 71 -23 0 -44 -16 -108 -85 -44 -47 -84 -85
-89 -85 -5 0 -9 38 -9 85 0 78 -2 85 -20 85 -19 0 -20 -7 -20 -175z"/>
<path d="M8466 1310 c-87 -27 -131 -149 -87 -246 38 -84 137 -116 220 -72 56
29 85 82 85 153 0 123 -101 200 -218 165z m122 -46 c33 -23 52 -67 52 -119 0
-85 -43 -135 -116 -135 -54 0 -99 36 -114 90 -17 62 7 142 49 165 35 19 101
19 129 -1z"/>
<path d="M8990 1145 l0 -175 83 0 c104 0 143 18 175 80 45 90 16 215 -58 252
-25 13 -59 18 -117 18 l-83 0 0 -175z m193 114 c55 -43 59 -169 6 -221 -24
-25 -35 -28 -93 -28 l-66 0 0 135 0 135 64 0 c49 0 69 -5 89 -21z"/>
<path d="M9659 1293 c-62 -163 -119 -315 -119 -319 0 -3 10 -4 21 -2 15 2 27
17 39 48 l18 45 75 3 75 3 18 -51 c15 -41 22 -50 42 -50 29 0 32 -11 -48 187
-57 143 -68 163 -88 163 -15 0 -26 -9 -33 -27z m60 -90 c13 -38 26 -74 29 -80
3 -10 -12 -13 -55 -13 l-59 0 25 80 c15 44 28 80 31 80 3 0 16 -30 29 -67z"/>
<path d="M10130 1145 c0 -168 1 -175 20 -175 18 0 20 8 22 148 l3 147 50 -147
c42 -126 52 -148 70 -148 18 0 27 20 64 133 24 72 47 136 52 141 5 6 9 -49 9
-132 0 -135 1 -142 20 -142 19 0 20 7 20 176 l0 175 -32 -3 c-31 -3 -32 -5
-77 -140 -25 -75 -49 -139 -52 -142 -3 -3 -27 59 -53 139 l-47 145 -34 0 -35
0 0 -175z"/>
<path d="M10859 1293 c-62 -163 -119 -315 -119 -319 0 -3 10 -4 21 -2 15 2 27
17 39 48 l18 45 75 3 75 3 18 -51 c15 -41 22 -50 42 -50 29 0 32 -11 -48 187
-57 143 -68 163 -88 163 -15 0 -26 -9 -33 -27z m60 -90 c13 -38 26 -74 29 -80
3 -10 -12 -13 -55 -13 l-59 0 25 80 c15 44 28 80 31 80 3 0 16 -30 29 -67z"/>
</g>
</svg>
